<svg width="49" height="25" viewBox="0 0 49 25" fill="none" xmlns="http://www.w3.org/2000/svg">
<path fill-rule="evenodd" clip-rule="evenodd" d="M39.9851 0L36.1543 3.50506L42.2816 12.5L36.1543 21.4949L39.9851 25L48.5 12.5L39.9851 0Z" fill="#5282FF"/>
<path fill-rule="evenodd" clip-rule="evenodd" d="M33.6029 7.24242L28.7429 0L24.9691 3.50506L29.8291 10.7475C30.5186 11.775 30.5186 13.225 29.8291 14.2525L24.9691 21.4949L28.7429 25L33.6029 17.7576C35.6714 14.675 35.6714 10.325 33.6029 7.24242Z" fill="white"/>
<path fill-rule="evenodd" clip-rule="evenodd" d="M15.0738 7.24242L20.0811 0L23.9692 3.50506L18.9619 10.7475C18.2515 11.775 18.2515 13.225 18.9619 14.2525L23.9692 21.4949L20.0811 25L15.0738 17.7576C12.9425 14.675 12.9425 10.325 15.0738 7.24242Z" fill="white"/>
<path fill-rule="evenodd" clip-rule="evenodd" d="M8.64453 0L12.4753 3.50506L6.34804 12.5L12.4753 21.4949L8.64453 25L0.129639 12.5L8.64453 0Z" fill="#5282FF"/>
</svg>
